<svg xmlns="http://www.w3.org/2000/svg" viewBox="0 0 32 32" width="100%" height="100%" fill="none">
  <defs>
    <linearGradient id="barGradA1" x1="0" y1="1" x2="0" y2="0">
      <stop offset="0%" stop-color="#059669"/>
      <stop offset="100%" stop-color="#10B981"/>
    </linearGradient>
    <linearGradient id="barGradA2" x1="0" y1="1" x2="0" y2="0">
      <stop offset="0%" stop-color="#10B981"/>
      <stop offset="100%" stop-color="#34D399"/>
    </linearGradient>
    <linearGradient id="barGradA3" x1="0" y1="1" x2="0" y2="0">
      <stop offset="0%" stop-color="#0D9488"/>
      <stop offset="100%" stop-color="#2DD4BF"/>
    </linearGradient>
    <linearGradient id="swooshGrad" x1="0" y1="1" x2="1" y2="0">
      <stop offset="0%" stop-color="#047857"/>
      <stop offset="100%" stop-color="#10B981"/>
    </linearGradient>
  </defs>

  <!-- 3 Rising Data Columns -->
  <rect x="7" y="14" width="4.5" height="11" rx="2.25" fill="url(#barGradA1)"/>
  <rect x="13.75" y="8" width="4.5" height="17" rx="2.25" fill="url(#barGradA2)"/>
  <rect x="20.5" y="4" width="4.5" height="21" rx="2.25" fill="url(#barGradA3)"/>

  <!-- Leaf Swoosh Curve & Stem Wrapping Base -->
  <path d="M6 28C6 28 8 20 14 20C19 20 25 17 28 8C28.5 15 26.5 24 20.5 27C15 29.5 6 28 6 28Z" fill="url(#swooshGrad)"/>
  <path d="M6 28C6 28 9 24 11 20" stroke="#047857" stroke-width="2" stroke-linecap="round"/>
</svg>